<?xml version="1.0" standalone="no"?>
<!DOCTYPE svg PUBLIC "-//W3C//DTD SVG 20010904//EN"
 "http://www.w3.org/TR/2001/REC-SVG-20010904/DTD/svg10.dtd">
<svg version="1.0" xmlns="http://www.w3.org/2000/svg"
 width="507.000000pt" height="507.000000pt" viewBox="0 0 507.000000 507.000000"
 preserveAspectRatio="xMidYMid meet">
<metadata>
Created by potrace 1.14, written by Peter Selinger 2001-2017
</metadata>
<g transform="translate(0.000000,507.000000) scale(0.100000,-0.100000)"
fill="#000000" stroke="none">
<path d="M2025 4865 c-99 -19 -190 -60 -241 -110 -72 -71 -125 -187 -127 -281
-2 -135 102 -244 234 -244 54 0 130 33 156 67 55 72 22 191 -60 214 -37 10
-85 7 -106 -6 -18 -11 -12 15 10 46 48 68 200 95 284 51 79 -41 144 -116 175
-202 29 -80 23 -208 -13 -278 -25 -48 -129 -162 -148 -162 -4 0 -14 -6 -21
-13 -20 -20 -97 -63 -231 -129 -179 -89 -272 -153 -383 -267 -74 -74 -157
-208 -169 -270 -1 -9 -8 -35 -14 -58 -28 -104 -14 -229 37 -328 37 -73 139
-167 215 -199 40 -16 44 -15 24 6 -7 7 -24 31 -37 53 -13 22 -27 42 -30 45 -3
3 -16 34 -27 70 -16 50 -21 90 -21 170 0 168 39 278 133 373 94 96 105 103
457 271 128 61 218 114 218 127 0 5 6 9 13 9 10 0 119 108 154 152 98 127 127
397 63 593 -56 174 -186 284 -356 301 -114 11 -127 11 -189 -1z"/>
<path d="M2741 4224 c24 -48 31 -74 31 -120 1 -61 -8 -117 -23 -144 -4 -8 -20
-41 -35 -73 -25 -56 -88 -163 -127 -217 -77 -106 -99 -135 -149 -191 -31 -35
-66 -75 -78 -89 -12 -14 -85 -90 -164 -170 -229 -233 -336 -385 -360 -510 -3
-19 -8 -45 -10 -56 -4 -21 -9 -106 -7 -133 1 -7 17 17 36 55 49 98 152 214
250 281 22 16 42 30 45 33 9 9 110 80 114 80 3 0 42 25 88 55 46 30 91 61 102
68 20 13 133 94 150 108 92 73 192 182 247 269 24 37 68 153 75 196 12 72 7
228 -10 294 -19 75 -64 174 -95 210 -39 46 -57 65 -84 90 l-28 24 32 -60z"/>
<path d="M3041 3533 c14 -36 4 -140 -18 -184 -53 -109 -180 -241 -379 -396
-25 -19 -73 -57 -184 -144 -163 -127 -239 -231 -255 -349 l-7 -45 21 32 c33
52 110 121 196 177 116 74 117 74 155 91 19 9 37 19 40 23 3 4 49 29 103 57
204 102 365 234 422 345 52 102 42 243 -24 345 -43 67 -90 98 -70 48z"/>
<path d="M3135 3046 c6 -3 55 -18 110 -36 228 -71 373 -175 392 -280 9 -52
-45 -132 -127 -191 -170 -121 -504 -214 -875 -245 -38 -3 -86 -7 -105 -10 -44
-5 -553 -5 -600 0 -19 2 -67 7 -107 10 -142 13 -224 24 -313 43 -41 8 -84 17
-95 19 -60 12 -174 45 -220 65 -16 7 -32 13 -35 13 -18 3 -103 46 -150 75 -64
41 -113 90 -130 131 -17 42 7 97 70 160 57 57 54 63 -11 21 -59 -38 -102 -78
-133 -125 -72 -108 12 -229 240 -344 118 -60 328 -129 449 -148 52 -9 69 -12
95 -18 31 -7 81 -14 145 -22 28 -3 61 -7 74 -9 165 -28 875 -21 1076 9 17 3
53 8 80 12 62 8 260 40 300 48 95 20 140 31 230 58 94 28 223 76 269 101 64
35 160 104 187 135 178 202 -60 403 -591 501 -98 18 -247 36 -225 27z"/>
<path d="M4245 2371 c-155 -38 -226 -89 -378 -274 -61 -73 -212 -349 -316
-577 -100 -220 -292 -453 -471 -572 -88 -58 -220 -128 -242 -128 -7 0 -25 -6
-40 -14 -135 -71 -562 -95 -806 -45 -254 52 -431 133 -627 288 -96 76 -199
177 -237 233 -18 27 -36 48 -40 48 -5 0 -8 7 -8 15 0 8 -3 15 -8 15 -4 0 -12
9 -17 19 -111 214 -177 360 -189 422 -2 8 -6 21 -9 29 -17 46 -54 185 -63 240
-2 14 -7 36 -10 50 -3 14 -7 32 -9 40 -5 24 -28 173 -30 192 -1 10 -5 21 -9
25 -9 9 0 -422 10 -472 3 -16 14 -77 25 -135 11 -58 25 -119 30 -136 5 -17 12
-41 14 -54 6 -32 37 -113 47 -124 4 -6 8 -17 8 -25 1 -9 9 -34 20 -56 11 -22
19 -43 20 -46 1 -34 170 -287 244 -368 85 -92 184 -183 228 -209 16 -9 28 -20
28 -24 0 -4 6 -8 14 -8 8 0 16 -3 18 -7 5 -12 96 -65 183 -107 159 -77 365
-136 545 -156 121 -13 464 -5 545 13 39 9 82 18 95 21 91 18 272 99 372 167
32 21 60 39 62 39 3 0 16 10 29 22 13 13 41 37 63 54 122 98 263 277 370 471
34 62 28 62 159 -2 114 -56 117 -59 185 -125 101 -99 122 -197 60 -283 -31
-44 -118 -117 -138 -117 -6 0 -12 -3 -14 -7 -9 -22 -219 -113 -343 -150 -190
-57 -328 -86 -595 -128 -14 -2 -45 -7 -70 -11 -25 -4 -61 -8 -80 -9 -19 -1
-89 -6 -155 -11 -206 -15 -701 -9 -940 11 -392 34 -809 111 -1045 193 -112 39
-193 73 -202 86 -4 6 -8 8 -8 4 0 -21 -167 97 -219 154 -60 67 -75 105 -75
188 -1 90 8 108 103 198 l66 63 -69 -31 c-169 -75 -249 -189 -218 -307 7 -26
17 -50 21 -53 5 -3 11 -15 15 -27 13 -40 213 -233 243 -233 6 0 13 -3 15 -7
15 -36 328 -186 498 -240 132 -42 304 -88 363 -98 18 -3 75 -14 127 -25 52
-10 118 -22 145 -25 52 -6 119 -15 146 -20 8 -2 53 -6 100 -9 46 -4 104 -9
129 -11 250 -25 777 -25 1093 0 29 2 88 7 132 10 44 3 90 7 103 10 13 2 51 7
85 10 77 8 137 18 347 60 38 7 110 28 165 47 33 11 68 22 79 24 10 2 23 7 30
12 6 5 23 12 37 15 30 8 189 94 219 120 11 9 23 17 26 17 18 0 119 121 146
174 26 52 31 74 34 148 2 55 -2 104 -11 134 -17 56 -81 154 -101 154 -8 0 -14
4 -14 10 0 20 -159 98 -232 115 -13 2 -52 11 -88 19 -36 8 -96 17 -134 19 -37
3 -70 8 -72 10 -3 3 16 50 41 106 41 92 93 238 140 390 14 47 47 119 91 203
24 45 127 142 176 166 101 49 255 42 326 -15 31 -25 92 -112 91 -128 0 -3 3
-27 7 -53 21 -132 -19 -264 -106 -354 -83 -83 -214 -123 -329 -98 -34 7 -69
19 -76 27 -8 7 -18 13 -23 13 -6 0 -12 7 -16 15 -3 8 -12 15 -20 15 -20 0 -15
-171 7 -221 40 -91 121 -130 267 -130 241 1 459 162 532 394 16 53 19 78 20
177 1 270 -128 478 -342 550 -59 20 -216 21 -295 1z"/>
<path d="M3220 2197 c0 -2 8 -19 17 -38 13 -25 18 -56 17 -119 -1 -74 -5 -93
-33 -149 -64 -129 -122 -198 -386 -464 -123 -123 -194 -203 -220 -247 -21 -36
-44 -68 -49 -72 -6 -4 -7 -8 -2 -8 4 0 2 -10 -6 -22 -27 -42 -49 -126 -54
-205 l-5 -78 36 62 c47 81 161 195 314 313 68 52 129 100 135 105 6 6 26 22
45 35 98 68 268 238 325 325 47 71 76 145 76 197 0 35 -18 116 -31 140 -5 10
-9 25 -9 33 0 8 -3 15 -7 15 -5 0 -20 21 -35 48 -29 51 -128 151 -128 129z"/>
<path d="M2243 1961 c-80 -36 -110 -57 -169 -117 -61 -63 -120 -177 -135 -259
-14 -75 -6 -204 16 -270 25 -74 81 -152 144 -201 56 -44 176 -99 240 -109 19
-3 39 -9 45 -12 6 -4 5 1 -3 10 -7 9 -17 17 -22 17 -14 0 -96 59 -134 97 -106
106 -146 244 -120 410 14 90 92 195 178 238 40 20 102 19 138 -2 77 -46 77
-175 0 -215 -14 -7 -32 -19 -39 -25 -7 -7 -20 -14 -28 -14 -8 -1 -19 -2 -26
-3 -25 -2 -17 -26 18 -52 92 -71 257 -6 309 120 34 80 16 212 -40 298 -73 111
-235 150 -372 89z"/>
<path d="M438 1143 c-40 -44 0 -184 71 -251 69 -64 125 -80 174 -47 36 23 34
30 -7 31 -61 1 -134 68 -156 143 -5 17 -6 31 -3 31 3 0 31 -27 63 -60 63 -66
111 -90 135 -70 37 30 2 100 -80 162 -93 71 -168 94 -197 61z"/>
</g>
</svg>
